<svg id="Layer_1" data-name="Layer 1" xmlns="http://www.w3.org/2000/svg" viewBox="0 0 500 500"><defs><style>.cls-1{fill:#ed1650;}</style></defs><path class="cls-1" d="M250,63.9c60.61,0,67.79.23,91.73,1.32,22.13,1,34.15,4.71,42.15,7.82A70.41,70.41,0,0,1,410,90a70.41,70.41,0,0,1,17,26.1c3.11,8,6.81,20,7.82,42.15,1.09,23.94,1.32,31.12,1.32,91.73s-.23,67.79-1.32,91.73c-1,22.13-4.71,34.15-7.82,42.15A75.17,75.17,0,0,1,383.88,427c-8,3.11-20,6.81-42.15,7.82-23.94,1.09-31.11,1.32-91.73,1.32s-67.79-.23-91.73-1.32c-22.13-1-34.15-4.71-42.15-7.82A70.41,70.41,0,0,1,90,410a70.41,70.41,0,0,1-17-26.1c-3.11-8-6.81-20-7.82-42.15C64.13,317.79,63.9,310.61,63.9,250s.23-67.79,1.32-91.73c1-22.13,4.71-34.15,7.82-42.15A70.41,70.41,0,0,1,90,90a70.41,70.41,0,0,1,26.1-17c8-3.11,20-6.81,42.15-7.82,23.94-1.09,31.12-1.32,91.73-1.32M250,23c-61.65,0-69.38.26-93.59,1.37s-40.66,4.94-55.1,10.55A111.24,111.24,0,0,0,61.1,61.1a111.24,111.24,0,0,0-26.18,40.21c-5.61,14.44-9.45,30.94-10.55,55.1S23,188.35,23,250s.26,69.38,1.37,93.59,4.94,40.66,10.55,55.1A111.24,111.24,0,0,0,61.1,438.9a111.24,111.24,0,0,0,40.21,26.18c14.44,5.61,30.94,9.45,55.1,10.55S188.35,477,250,477s69.38-.26,93.59-1.37,40.66-4.94,55.1-10.55a116,116,0,0,0,66.39-66.39c5.61-14.44,9.45-30.94,10.55-55.1S477,311.65,477,250s-.26-69.38-1.37-93.59-4.94-40.66-10.55-55.1A111.24,111.24,0,0,0,438.9,61.1a111.24,111.24,0,0,0-40.21-26.18c-14.44-5.61-30.94-9.45-55.1-10.55S311.65,23,250,23Z"/><path class="cls-1" d="M250,133.43A116.57,116.57,0,1,0,366.57,250,116.57,116.57,0,0,0,250,133.43Zm0,192.24A75.67,75.67,0,1,1,325.67,250,75.67,75.67,0,0,1,250,325.67Z"/><circle class="cls-1" cx="371.17" cy="128.83" r="27.24"/></svg>