<?xml version="1.0" encoding="utf-8"?>
<!-- Generator: Adobe Illustrator 24.2.3, SVG Export Plug-In . SVG Version: 6.00 Build 0)  -->
<svg version="1.1" id="Layer_1" xmlns="http://www.w3.org/2000/svg" xmlns:xlink="http://www.w3.org/1999/xlink" x="0px" y="0px"
	 viewBox="0 0 96.02 96.02" style="enable-background:new 0 0 96.02 96.02;" xml:space="preserve">
<style type="text/css">
	.st0{fill:#EE1D50;}
</style>
<g>
	<path class="st0" d="M47.9,26.14c-7.39,0-14.28,3.68-18.41,9.85l-1.73,2.59h5.64l0.5-0.67c3.29-4.42,8.52-7.06,14-7.06
		s10.72,2.64,14,7.06l0.5,0.67h5.64l-1.73-2.59C62.17,29.82,55.29,26.14,47.9,26.14z"/>
	<path class="st0" d="M29.34,60.37c4.12,6.3,11.06,10.07,18.55,10.07c7.5,0,14.43-3.76,18.55-10.07l1.68-2.57h-5.6l-0.5,0.69
		c-3.28,4.53-8.57,7.24-14.14,7.24c-5.57,0-10.85-2.71-14.14-7.24l-0.5-0.69h-5.6L29.34,60.37z"/>
	<polygon class="st0" points="18.88,43.95 21.87,43.95 21.87,55.71 25.75,55.71 25.75,43.95 28.72,43.95 28.72,40.55 18.88,40.55 	
		"/>
	<polygon class="st0" points="38.7,43.95 38.7,40.55 30.28,40.55 30.28,55.71 38.7,55.71 38.7,52.31 33.99,52.31 33.99,49.71 
		38.56,49.71 38.56,46.31 33.99,46.31 33.99,43.95 	"/>
	<path class="st0" d="M54.01,48.13c0-3.09-1.35-5.43-3.5-6.66c-1.07-0.59-2.56-0.92-4.45-0.92H40.9v15.16h5.43
		C51.06,55.71,54.01,53.13,54.01,48.13z M46.51,52.31h-1.74v-8.36h1.76c2.23,0,3.61,1.5,3.61,4.2
		C50.14,50.92,48.74,52.31,46.51,52.31z"/>
	<polygon class="st0" points="64.73,43.95 64.73,40.55 56.31,40.55 56.31,55.71 64.73,55.71 64.73,52.31 60.02,52.31 60.02,49.71 
		64.59,49.71 64.59,46.31 60.02,46.31 60.02,43.95 	"/>
	<path class="st0" d="M78.46,45.77c0-2.15-1.15-3.93-2.79-4.67c-0.8-0.35-2.01-0.55-3.59-0.55h-4.96v15.16h3.71v-4.9h0.04l3.5,4.9
		h4.43l-4.12-5.16C77.03,50.14,78.46,48.17,78.46,45.77z M72.27,48.17h-1.43v-4.22h1.48c1.46,0,2.44,0.74,2.44,2.05
		C74.75,47.45,73.81,48.17,72.27,48.17z"/>
	<path class="st0" d="M5.87,57.93H1.04c4.58,21.73,23.9,38.09,46.97,38.09S90.4,79.66,94.99,57.93h-4.83
		c-4.5,19.11-21.68,33.38-42.14,33.38S10.37,77.04,5.87,57.93z"/>
	<path class="st0" d="M0.89,38.81H5.7c4.23-19.47,21.59-34.1,42.31-34.1c20.72,0,38.08,14.63,42.31,34.1h4.81
		C90.82,16.72,71.34,0,48.01,0C24.69,0,5.2,16.72,0.89,38.81z"/>
</g>
</svg>
