<svg id="Layer_1" data-name="Layer 1" xmlns="http://www.w3.org/2000/svg" viewBox="0 0 500 500"><defs><style>.cls-1{fill:#fff;}</style></defs><path class="cls-1" d="M472,137.74a58.21,58.21,0,0,0-41-41.23c-36.13-9.75-181-9.75-181-9.75s-144.91,0-181,9.75a58.21,58.21,0,0,0-41,41.23C18.31,174.11,18.31,250,18.31,250s0,75.89,9.68,112.26a58.21,58.21,0,0,0,41,41.23c36.13,9.75,181,9.75,181,9.75s144.91,0,181-9.75a58.21,58.21,0,0,0,41-41.23c9.68-36.37,9.68-112.26,9.68-112.26S481.69,174.11,472,137.74ZM202.61,318.9V181.1L323.72,250Z"/></svg>